<?xml version="1.0" encoding="utf-8"?>
<?xml-stylesheet type="text/xsl" href="rss1.xsl"?>
<rss version="2.0" xmlns:atom="http://www.w3.org/2005/Atom" xmlns:content="http://purl.org/rss/1.0/modules/content/" xmlns:dc="http://purl.org/dc/elements/1.1/" xmlns:media="http://search.yahoo.com/mrss/">
<channel>
 <title>Getty</title>
 <link>http://www.gettyimg.com/</link>
 <atom:link href="http://www.gettyimg.com/" rel="self" type="application/rss+xml" />

 
                <item>
                <title><![CDATA[【HD Live Performances】WEB-RiP - Lana Del Rey - Coachella 19-04-2024 (1080p)]]></title>
                <link><![CDATA[https://sharemania.us/threads/lana-del-rey-coachella-19-04-2024-1080p.242652/]]></link>
                <description><![CDATA[<article>
<blockquote class="messageText SelectQuoteContainer ugc baseHtml">
<div style="text-align: center"><b><span style="font-size: 22px"><i>Lana Del Rey - Coachella 19-04-2024 (1080p)</i><br>
<i><img src="https://i.imgur.com/I6dYyB7.jpg" class="bbCodeImage LbImage" alt="[​IMG]" data-url="https://i.imgur.com/I6dYyB7.jpg" style=""> </i></span></b><br>
<span style="font-size: 15px">SETLIST:</span>​</div><ol>
<li><div style="text-align: center">"Without You"​</div></li>
<li><div style="text-align: center">"West Coast"​</div></li>
<li><div style="text-align: center">"Doin' Time"​</div></li>
<li><div style="text-align: center">"Summertime Sadness"​</div></li>
<li><div style="text-align: center">"Cherry"​</div></li>
<li><div style="text-align: center">"Pretty When You Cry"​</div></li>
<li><div style="text-align: center">"Ride"​</div></li>
<li><div style="text-align: center">"Born to Die"​</div></li>
<li><div style="text-align: center">"I Luv it"​</div></li>
<li><div style="text-align: center">"Bartender"​</div></li>
<li><div style="text-align: center">"Chemtrails Over the Country Club"​</div></li>
<li><div style="text-align: center">"The Grants"​</div></li>
<li><div style="text-align: center">"Did You Know That There's a Tunnel Under Ocean Blvd​</div></li>
<li><div style="text-align: center">"Norman fucking Rockwell"​</div></li>
<li><div style="text-align: center">"Arcadia"​</div></li>
<li><div style="text-align: center">"Candy Necklace"​</div></li>
<li><div style="text-align: center">"Hope Is a Dangerous Thing for a Woman Like Me to Have - But I Have It"​</div></li>
<li><div style="text-align: center">"A&amp;W"<br>
<div class="ToggleTriggerAnchor bbCodeSpoilerContainer">
<button type="button" class="button bbCodeSpoilerButton ToggleTrigger Tooltip JsOnly" data-target="> .SpoilerTarget"><span>Spoiler: <span class="SpoilerTitle">MediaInfo</span></span></button>
<div class="SpoilerTarget bbCodeSpoilerText">General<br>
Complete name : E:\Lana Del Rey - Coachella 19-04-2024 (1080p).mp4<br>
Format : MPEG-4<br>
Format profile : Base Media<br>
Codec ID : isom (isom/iso2/avc1/mp41)<br>
File size : 1.60 GiB<br>
Duration : 1 h 55 min<br>
Overall bit rate mode : Variable<br>
Overall bit rate : 1 991 kb/s<br>
Frame rate : 29.970 FPS<br>
Writing application : Lavf60.4.100<br>
<br>
Video<br>
ID : 1<br>
Format : AVC<br>
Format/Info : Advanced Video Codec<br>
Format profile : High@L4<br>
Format settings : CABAC / 1 Ref Frames<br>
Format settings, CABAC : Yes<br>
Format settings, Reference : 1 frame<br>
Codec ID : avc1<br>
Codec ID/Info : Advanced Video Coding<br>
Duration : 1 h 55 min<br>
Source duration : 1 h 55 min<br>
Bit rate : 1 855 kb/s<br>
Width : 1 920 pixels<br>
Height : 1 080 pixels<br>
Display aspect ratio : 16:9<br>
Frame rate mode : Variable<br>
Frame rate : 29.970 (29970/1000) FPS<br>
Minimum frame rate : 0.199 FPS<br>
Maximum frame rate : 30.090 FPS<br>
Color space : YUV<br>
Chroma subsampling : 4:2:0<br>
Bit depth : 8 bits<br>
Scan type : Progressive<br>
Bits/(Pixel*Frame) : 0.030<br>
Stream size : 1.49 GiB (93%)<br>
Source stream size : 1.49 GiB (93%)<br>
Color range : Limited<br>
Color primaries : BT.709<br>
Transfer characteristics : BT.709<br>
Matrix coefficients : BT.709<br>
Codec configuration box : avcC<br>
<br>
Audio<br>
ID : 2<br>
Format : AAC LC<br>
Format/Info : Advanced Audio Codec Low Complexity<br>
Codec ID : mp4a-40-2<br>
Duration : 1 h 55 min<br>
Bit rate mode : Variable<br>
Bit rate : 128 kb/s<br>
Maximum bit rate : 130 kb/s<br>
Channel(s) : 2 channels<br>
Channel layout : L R<br>
Sampling rate : 44.1 kHz<br>
Frame rate : 43.066 FPS (1024 SPF)<br>
Compression mode : Lossy<br>
Stream size : 105 MiB (6%)<br>
Default : Yes<br>
Alternate group : 1</div>
</div>
<div class="bbCodeBlock bbCodeVfcHH HiddenContent">
<div class="attribution type">Hidden Content:</div>
<blockquote>You must either reply or click 'Like' to see the hidden information contained here.</blockquote>
</div></div></li>
</ol>
<div class="messageTextEndMarker">&nbsp;</div>
</blockquote>
</article>]]></description>
                <author><![CDATA[ImenaOphelia]]></author>
                </item>

                </channel></rss>